<svg width="40" height="40" viewBox="0 0 40 40" fill="none" xmlns="http://www.w3.org/2000/svg">
<g id="user">
<path id="Path 4" d="M9.1665 32.5C9.1665 32.5 14.9998 30 16.6665 28.3333C18.3332 26.6667 13.3332 26.6667 13.3332 18.3333C13.3332 10 19.9998 10 19.9998 10C19.9998 10 26.6665 10 26.6665 18.3333C26.6665 26.6667 21.6665 26.6667 23.3332 28.3333C24.9998 30 30.8332 32.5 30.8332 32.5" stroke="black" stroke-linecap="round"/>
<path id="Oval" fill-rule="evenodd" clip-rule="evenodd" d="M20.0002 36.6666C29.2049 36.6666 36.6668 29.2047 36.6668 20C36.6668 10.7952 29.2049 3.33331 20.0002 3.33331C10.7954 3.33331 3.3335 10.7952 3.3335 20C3.3335 29.2047 10.7954 36.6666 20.0002 36.6666Z" stroke="black"/>
</g>
</svg>
