<svg width="83" height="83" viewBox="0 0 83 83" fill="none" xmlns="http://www.w3.org/2000/svg">
<path d="M81.6167 58.1H77.4667V49.8H78.85C79.4093 49.8 79.9138 49.4629 80.128 48.9462C80.3421 48.4295 80.2232 47.8344 79.8281 47.4386L69.1667 36.7772V27.6667H73.3167C75.6085 27.6667 77.4667 25.8085 77.4667 23.5167C77.4667 21.2248 75.6085 19.3667 73.3167 19.3667H48.6767C48.2377 18.6115 47.6831 17.9306 47.0333 17.3471V5.53333C47.0333 2.47757 44.5558 0 41.5 0C38.4442 0 35.9667 2.47757 35.9667 5.53333V17.3471C35.3169 17.9306 34.7623 18.6115 34.3233 19.3667H9.68333C7.39151 19.3667 5.53333 21.2248 5.53333 23.5167C5.53333 25.8085 7.39151 27.6667 9.68333 27.6667H13.8333V36.7772L3.17194 47.4386C2.7768 47.8344 2.65792 48.4295 2.87204 48.9462C3.08616 49.4629 3.59072 49.8 4.15 49.8H5.53333V58.1H1.38333C0.619393 58.1 0 58.7194 0 59.4833V62.25C0 64.5418 1.85818 66.4 4.15 66.4H26.2833C28.5752 66.4 30.4333 64.5418 30.4333 62.25V59.4833C30.4333 58.7194 29.8139 58.1 29.05 58.1H24.9V49.8H26.2833C26.8426 49.8 27.3472 49.4629 27.5613 48.9462C27.7754 48.4295 27.6565 47.8344 27.2614 47.4386L16.6 36.7772V27.6667H34.3233C34.7623 28.4218 35.3169 29.1027 35.9667 29.6863V74.7H26.2833C25.5194 74.7 24.9 75.3194 24.9 76.0833V81.6167C24.9 82.3806 25.5194 83 26.2833 83H56.7167C57.4806 83 58.1 82.3806 58.1 81.6167V76.0833C58.1 75.3194 57.4806 74.7 56.7167 74.7H47.0333V29.6863C47.6831 29.1027 48.2377 28.4218 48.6767 27.6667H66.4V36.7772L55.7386 47.4386C55.3435 47.8344 55.2246 48.4295 55.4387 48.9462C55.6528 49.4629 56.1574 49.8 56.7167 49.8H58.1V58.1H53.95C53.1861 58.1 52.5667 58.7194 52.5667 59.4833V62.25C52.5667 64.5418 54.4248 66.4 56.7167 66.4H78.85C81.1418 66.4 83 64.5418 83 62.25V59.4833C83 58.7194 82.3806 58.1 81.6167 58.1ZM27.6667 62.25C27.6667 63.0139 27.0473 63.6333 26.2833 63.6333H4.15C3.38606 63.6333 2.76667 63.0139 2.76667 62.25V60.8667H27.6667V62.25ZM16.6 58.1H13.8333V55.3333H16.6V58.1ZM22.1333 58.1H19.3667V53.95C19.3667 53.1861 18.7473 52.5667 17.9833 52.5667H12.45C11.6861 52.5667 11.0667 53.1861 11.0667 53.95V58.1H8.3V49.8H22.1333V58.1ZM7.48945 47.0333L15.2167 39.3061L22.9439 47.0333H7.48945ZM9.68333 24.9C8.91939 24.9 8.3 24.2806 8.3 23.5167C8.3 22.7527 8.91939 22.1333 9.68333 22.1333H33.3243C33.1588 23.0479 33.1588 23.9854 33.3243 24.9H9.68333ZM38.7333 5.53333C38.7333 4.00545 39.9721 2.76667 41.5 2.76667C43.0279 2.76667 44.2667 4.00545 44.2667 5.53333V15.701C42.4787 15.0552 40.5213 15.0552 38.7333 15.701V5.53333ZM55.3333 80.2333H27.6667V77.4667H55.3333V80.2333ZM44.2667 74.7H38.7333V31.3324C40.5213 31.9781 42.4787 31.9781 44.2667 31.3324V74.7ZM41.5 29.05C38.4442 29.05 35.9667 26.5724 35.9667 23.5167C35.9667 20.4609 38.4442 17.9833 41.5 17.9833C44.5558 17.9833 47.0333 20.4609 47.0333 23.5167C47.0333 26.5724 44.5558 29.05 41.5 29.05ZM49.6757 22.1333H73.3167C74.0806 22.1333 74.7 22.7527 74.7 23.5167C74.7 24.2806 74.0806 24.9 73.3167 24.9H49.6757C49.8412 23.9854 49.8412 23.0479 49.6757 22.1333ZM67.7833 39.3061L75.5105 47.0333H60.0561L67.7833 39.3061ZM60.8667 49.8H74.7V58.1H71.9333V53.95C71.9333 53.1861 71.3139 52.5667 70.55 52.5667H65.0167C64.2527 52.5667 63.6333 53.1861 63.6333 53.95V58.1H60.8667V49.8ZM69.1667 58.1H66.4V55.3333H69.1667V58.1ZM80.2333 62.25C80.2333 63.0139 79.6139 63.6333 78.85 63.6333H56.7167C55.9527 63.6333 55.3333 63.0139 55.3333 62.25V60.8667H80.2333V62.25Z" fill="#8D8A8A"/>
</svg>
