<svg width="52" height="70" viewBox="0 0 52 70" fill="none" xmlns="http://www.w3.org/2000/svg">
<path d="M48.5371 2.83213H29.8502C29.244 1.18536 27.6594 0.00765991 25.8051 0.00765991C23.9508 0.00765991 22.3662 1.18536 21.76 2.83213H3.07303C1.37854 2.83213 0 4.21053 0 5.90516V13.2617C0 13.8275 0.458555 14.286 1.0243 14.286C1.59004 14.286 2.04859 13.8275 2.04859 13.2617V5.90516C2.04859 5.34024 2.50811 4.88086 3.07289 4.88086H21.4963V6.34731H18.0597C16.7418 6.34731 15.6696 7.41959 15.6696 8.73743V10.0931H7.76494C6.07045 10.0931 4.69191 11.4717 4.69191 13.1662V52.3306C4.69055 52.787 4.87621 53.2172 5.19176 53.5378L15.0378 63.3839C15.3584 63.6996 15.7887 63.8854 16.2451 63.8839H43.8452C45.5396 63.8839 46.9182 62.5054 46.9182 60.8109V13.1662C46.9182 11.4717 45.5396 10.0931 43.8452 10.0931H35.938V8.73743C35.938 7.41946 34.8657 6.34731 33.5479 6.34731H30.1137V4.88073H48.5369C49.1019 4.88073 49.5612 5.34024 49.5612 5.90502V66.9193C49.5612 67.4842 49.1017 67.9436 48.5369 67.9436H35.7846C35.2189 67.9436 34.7603 68.4022 34.7603 68.9679C34.7603 69.5337 35.2189 69.9922 35.7846 69.9922H48.5369C50.2314 69.9922 51.61 68.6137 51.61 66.9192V5.90516C51.6101 4.21053 50.2314 2.83213 48.5371 2.83213ZM8.24441 53.693H14.6523C14.7794 53.693 14.8828 53.7964 14.8828 53.9235V60.3314L8.24441 53.693ZM43.8452 12.1417C44.4101 12.1417 44.8695 12.6012 44.8695 13.166V60.8107C44.8695 61.3756 44.4099 61.835 43.8452 61.835H16.9315V53.9234C16.9315 52.6667 15.909 51.6443 14.6524 51.6443H6.74064V13.1662C6.74064 12.6012 7.20016 12.1419 7.76494 12.1419H15.6697V13.2668C15.6697 13.8794 15.9776 14.4424 16.4932 14.7729L18.0061 15.7425C18.5928 16.1185 19.3506 16.1185 19.9369 15.7425L21.2487 14.9015L22.5606 15.7425C23.1473 16.1185 23.905 16.1185 24.4913 15.7425L25.8035 14.9015L27.1158 15.7426C27.7024 16.1186 28.4601 16.1185 29.0464 15.7425L30.3584 14.9015L31.6709 15.7426C31.964 15.9306 32.3001 16.0244 32.6361 16.0244C32.9719 16.0244 33.3081 15.9305 33.6012 15.7426L35.1144 14.773C35.6303 14.4427 35.9383 13.8796 35.9383 13.2666V12.1417H43.8452ZM33.8893 8.73743V12.8237C33.8893 13.0113 33.7937 13.1858 33.6358 13.2872L32.6357 13.928L31.3232 13.0869C31.0301 12.899 30.694 12.8051 30.3581 12.8051C30.0221 12.8051 29.6859 12.8991 29.3926 13.087L28.0808 13.928L26.7684 13.0869C26.1818 12.711 25.4242 12.7109 24.838 13.0869L23.5257 13.9278L22.2137 13.0869C21.627 12.7109 20.8693 12.711 20.2829 13.087L18.9712 13.9278L17.9715 13.2872C17.8136 13.186 17.7181 13.0113 17.7181 12.8237V8.73743C17.7181 8.54889 17.8709 8.39604 18.0595 8.39604H33.5475C33.7364 8.3959 33.8893 8.54875 33.8893 8.73743ZM23.5452 6.34731V4.31621C23.5452 3.07002 24.5589 2.05625 25.8051 2.05625C27.0513 2.05625 28.0651 3.07002 28.0651 4.31621V6.34717H23.5452V6.34731Z" fill="#8D8A8A"/>
</svg>
